<svg xmlns="http://www.w3.org/2000/svg" viewBox="0 0 960 540" overflow="hidden" preserveAspectRatio="xMinYMin meet">
<style>
circle.cell {
stroke: #bbb;
fill: #222;
}
rect.neighbor {
stroke: #aab;
fill: #2727da;
fill-opacity: 0.9;
}
polygon.delaunay {
fill: none;
stroke: #eee;
stroke-width: 2px;
}
polygon.voronoi {
fill: rgb(60,70,240);
stroke: #bbb;
stroke-width: 2px;
}
polygon.neighbor {
fill: #6688ee;
fill-opacity: 0.75;
stroke: #4444bb;
stroke-width: 3px;
stroke-opacity: 0.9;
stroke-dasharray: 5;
}
ellipse.circumcircle {
fill: none;
stroke: #23b;
stroke-width: 2px;
stroke-opacity: 0.5;
}
circle.circumcenter {
fill: #ccc;
opacity: 0.75;
stroke: #555;
stroke-width: 1px;
}
</style>
<g id="cell-0">
<polygon class="voronoi" style="fill:rgb(25, 51, 127);fill-opacity:0.9;stroke-opacity:0.9" points="299.8016 0.0 650.3208 0.0 635.803 69.0138 506.3921 200.9831 328.1392 131.2186" />
<circle class="cell" r="5" cx="451.92" cy="89.37" />
</g>
<g id="cell-1">
<polygon class="voronoi" style="fill:rgb(127, 76, 51);fill-opacity:0.9;stroke-opacity:0.9" points="290.0819 203.1943 328.1392 131.2186 506.3921 200.9831 502.4859 323.3779 329.4583 286.3984" />
<circle class="cell" r="5" cx="390.63" cy="245.97" />
</g>
<g id="cell-2">
<polygon class="voronoi" style="fill:rgb(25, 51, 127);fill-opacity:0.9;stroke-opacity:0.9" points="635.803 69.0138 650.3208 0.0 960.0 0.0 960.0 409.5725 753.6152 296.6449" />
<circle class="cell" r="5" cx="795.9" cy="161.73" />
</g>
<g id="cell-3">
<polygon class="voronoi" style="fill:rgb(127, 76, 51);fill-opacity:0.9;stroke-opacity:0.9" points="192.1884 368.5249 289.1627 395.9268 391.2253 540.0 32.4971 540.0" />
<circle class="cell" r="5" cx="217.83" cy="455.22" />
</g>
<g id="cell-4">
<polygon class="voronoi" style="fill:rgb(25, 51, 127);fill-opacity:0.9;stroke-opacity:0.9" points="161.2713 251.3656 290.0819 203.1943 329.4583 286.3984 289.1627 395.9268 192.1884 368.5249" />
<circle class="cell" r="5" cx="259.41" cy="308.07" />
</g>
<g id="cell-5">
<polygon class="voronoi" style="fill:rgb(127, 76, 51);fill-opacity:0.9;stroke-opacity:0.9" points="0.0 177.2106 161.2713 251.3656 192.1884 368.5249 32.4971 540.0 0.0 540.0" />
<circle class="cell" r="5" cx="103.89" cy="349.11" />
</g>
<g id="cell-6">
<polygon class="voronoi" style="fill:rgb(25, 51, 127);fill-opacity:0.9;stroke-opacity:0.9" points="518.1122 364.5301 753.6152 296.6449 960.0 409.5725 960.0 540.0 484.275 540.0" />
<circle class="cell" r="5" cx="662.79" cy="405.0" />
</g>
<g id="cell-7">
<polygon class="voronoi" style="fill:rgb(127, 76, 51);fill-opacity:0.9;stroke-opacity:0.9" points="506.3921 200.9831 635.803 69.0138 753.6152 296.6449 518.1122 364.5301 502.4859 323.3779" />
<circle class="cell" r="5" cx="619.05" cy="253.26" />
</g>
<g id="cell-8">
<polygon class="voronoi" style="fill:rgb(25, 51, 127);fill-opacity:0.9;stroke-opacity:0.9" points="0.0 0.0 299.8016 0.0 328.1392 131.2186 290.0819 203.1943 161.2713 251.3656 0.0 177.2106" />
<circle class="cell" r="5" cx="198.12" cy="144.18" />
</g>
<g id="cell-9">
<polygon class="voronoi" style="fill:rgb(127, 76, 51);fill-opacity:0.9;stroke-opacity:0.9" points="329.4583 286.3984 502.4859 323.3779 518.1122 364.5301 484.275 540.0 391.2253 540.0 289.1627 395.9268" />
<circle class="cell" r="5" cx="368.76" cy="348.3" />
</g>
</svg>