<svg xmlns="http://www.w3.org/2000/svg" viewBox="0 0 960 540" overflow="hidden" preserveAspectRatio="xMinYMin meet">
<style>
circle.cell {
stroke: #bbb;
fill: #222;
}
rect.neighbor {
stroke: #aab;
fill: #2727da;
fill-opacity: 0.9;
}
polygon.delaunay {
fill: none;
stroke: #eee;
stroke-width: 2px;
}
polygon.voronoi {
fill: rgb(60,70,240);
stroke: #bbb;
stroke-width: 2px;
}
polygon.neighbor {
fill: #6688ee;
fill-opacity: 0.75;
stroke: #4444bb;
stroke-width: 3px;
stroke-opacity: 0.9;
stroke-dasharray: 5;
}
ellipse.circumcircle {
fill: none;
stroke: #23b;
stroke-width: 2px;
stroke-opacity: 0.5;
}
circle.circumcenter {
fill: #ccc;
opacity: 0.75;
stroke: #555;
stroke-width: 1px;
}
</style>
<g id="cell-0">
<polygon class="voronoi" style="fill:rgb(25, 51, 127);fill-opacity:0.9;stroke-opacity:0.9" points="404.091 168.4018 356.4783 0.0 436.1038 0.0 543.3663 194.6089 477.489 265.2722" />
<circle class="cell" r="5" cx="493.77" cy="213.84" />
</g>
<g id="cell-1">
<polygon class="voronoi" style="fill:rgb(127, 76, 51);fill-opacity:0.9;stroke-opacity:0.9" points="387.1657 262.5486 404.091 168.4018 477.489 265.2722 481.3483 283.8692 472.3685 297.6962 389.3504 270.0235" />
<circle class="cell" r="5" cx="423.57" cy="267.03" />
</g>
<g id="cell-2">
<polygon class="voronoi" style="fill:rgb(25, 51, 127);fill-opacity:0.9;stroke-opacity:0.9" points="436.1038 0.0 960.0 0.0 960.0 407.0004 695.9711 302.756 543.3663 194.6089" />
<circle class="cell" r="5" cx="586.11" cy="162.945" />
</g>
<g id="cell-3">
<polygon class="voronoi" style="fill:rgb(127, 76, 51);fill-opacity:0.9;stroke-opacity:0.9" points="319.1882 333.2393 383.9975 312.744 451.8577 356.2985 476.9477 540.0 0.0 540.0 0.0 455.1691" />
<circle class="cell" r="5" cx="378.885" cy="349.11" />
</g>
<g id="cell-4">
<polygon class="voronoi" style="fill:rgb(25, 51, 127);fill-opacity:0.9;stroke-opacity:0.9" points="368.5701 266.8823 387.1657 262.5486 389.3504 270.0235 383.9975 312.744 319.1882 333.2393" />
<circle class="cell" r="5" cx="358.905" cy="285.93" />
</g>
<g id="cell-5">
<polygon class="voronoi" style="fill:rgb(127, 76, 51);fill-opacity:0.9;stroke-opacity:0.9" points="368.5701 266.8823 319.1882 333.2393 0.0 455.1691 0.0 288.5629" />
<circle class="cell" r="5" cx="353.1" cy="281.61" />
</g>
<g id="cell-6">
<polygon class="voronoi" style="fill:rgb(25, 51, 127);fill-opacity:0.9;stroke-opacity:0.9" points="472.3685 297.6962 481.3483 283.8692 695.9711 302.756 960.0 407.0004 960.0 540.0 476.9477 540.0 451.8577 356.2985" />
<circle class="cell" r="5" cx="520.23" cy="329.805" />
</g>
<g id="cell-7">
<polygon class="voronoi" style="fill:rgb(127, 76, 51);fill-opacity:0.9;stroke-opacity:0.9" points="543.3663 194.6089 695.9711 302.756 481.3483 283.8692 477.489 265.2722" />
<circle class="cell" r="5" cx="527.655" cy="245.43" />
</g>
<g id="cell-8">
<polygon class="voronoi" style="fill:rgb(25, 51, 127);fill-opacity:0.9;stroke-opacity:0.9" points="0.0 0.0 356.4783 0.0 404.091 168.4018 387.1657 262.5486 368.5701 266.8823 0.0 288.5629" />
<circle class="cell" r="5" cx="351.48" cy="254.07" />
</g>
<g id="cell-9">
<polygon class="voronoi" style="fill:rgb(127, 76, 51);fill-opacity:0.9;stroke-opacity:0.9" points="389.3504 270.0235 472.3685 297.6962 451.8577 356.2985 383.9975 312.744" />
<circle class="cell" r="5" cx="414.93" cy="292.95" />
</g>
</svg>